{"title":"Terminator.Salvation.2009.Theatrical.Cut.DVDRip.XviD-EXViD","uid":6634525,"size":1538817221,"categoryP":"video","categoryS":"movies","magnet":"?xt=urn:btih:cbb89eb09877c0c02919ec1246c6765a5b1db92b&amp;dn=Terminator.Salvation.2009.Theatrical.Cut.DVDRip.XviD-EXViD&amp;tr=udp%3A%2F%2Ftracker.openbittorrent.com%3A80&amp;tr=udp%3A%2F%2Fopen.demonii.com%3A1337&amp;tr=udp%3A%2F%2Ftracker.coppersurfer.tk%3A6969&amp;tr=udp%3A%2F%2Fexodus.desync.com%3A6969","seeders":0,"leechers":1,"uploader":"sceneline","files":110,"time":1314507227,"description":"- &lt;a href=&quot;\nhttp://www.Speed.Cd&quot; rel=&quot;nofollow&quot; target=&quot;_NEW&quot;&gt;\nhttp://www.Speed.Cd&lt;/a&gt; \n       &lt;a href=&quot;\nhttp://www.Speed.Cd&quot; rel=&quot;nofollow&quot; target=&quot;_NEW&quot;&gt;\nhttp://www.Speed.Cd&lt;/a&gt;      fast  and The Hottest Private Tracker on the net\n\n(((--Submit for invite!!--)))\n\nPlease Seed back to make the speed Faster!!!\n\n------------------nfo--------------------------\n-                                                                                                     \n       \n     \n     \n       \n       \n     \n     \n                                         \n                                         \n                EXVID                    \n                                         \n         \n                                         \n         Filled the Archives             \n                                         \n         \n                                         \n                With:                    \n                                         \n         \n                                         \n                                    \n     E240                           \n                                    \n     SP               (C) 2009      \n                                         \n     \n     \n     \n                                                                                  \n                                                                                   \n       Terminator.Salvation.2009.Theatrical.Cut.DVDRip.XviD-EXViD                   \n                                                                                   \n                                                                                  \n     \n                                                                                               \nEXViD aims to iNTERNAL those releases which have been lost in the archives.\nEXViD aims to PRE non-internal releases which have poor sources and are likely skipped by others.\n &lt;a href=&quot;\nhttp://www.imdb.com/title/tt0438488/&quot; rel=&quot;nofollow&quot; target=&quot;_NEW&quot;&gt;\nhttp://www.imdb.com/title/tt0438488/&lt;/a&gt;\nSubtitles: EN, FR, NL, AR, DA, FI, NO, SV\nDate: 2011.08\n\nDirector: McG\n\nGenres: Action | Drama | Sci-Fi | Thriller\n\nPlot:\nIn 2018, Skynet has destroyed most of humanity and survivors have been hiding underground\nfrom an army of machines, known as &quot;Terminators&quot;. After a failed attack on a Skynet base,\nJohn Connor, the man fated to lead the Resistance is the sole survivor. On the other hand,\nMarcus Wright, who only remembers being on death row, meets Kyle Reese and it is believed\nby Connor that he was sent from the future to kill him. Now Marcus and John must unlikely\njoin forces in order to save Kyle Reese and the humans captured by the machines.\n\nCast:\nChristian Bale \t ... \t John Connor\nSam Worthington \t ... \t Marcus Wright\nMoon Bloodgood \t ... \t Blair Williams\nHelena Bonham Carter \t ... \t Dr. Serena Kogan\nAnton Yelchin \t ... \t Kyle Reese\nJadagrace \t ... \t Star (as Jadagrace Berry)\nBryce Dallas Howard \t ... \t Kate Connor\nCommon \t ... \t Barnes\nJane Alexander \t ... \t Virginia\nMichael Ironside \t ... \t General Ashdown\nIvan G'Vera \t ... \t General Losenko (as Ivan Gvera)\nChris Browning \t ... \t Morrison\nDorian Nkono \t ... \t David\nBeth Bailey \t ... \t Lisa\nVictor J. Ho \t ... \t Mark (as Victor Ho)\n\nStats:\nFormat                           : AVI\nFormat/Info                      : Audio Video Interleave\nFile size                        : 1.37 GiB\nDuration                         : 1h 50mn\nOverall bit rate                 : 1 779 Kbps\nWriting application              : Nandub v1.0rc2\nWriting library                  : Nandub build 1852/release\n\nVideo\nID                               : 0\nFormat                           : MPEG-4 Visual\nFormat profile                   : Advanced Simple@L5\nFormat settings, BVOP            : 2\nFormat settings, QPel            : No\nFormat settings, GMC             : No warppoints\nFormat settings, Matrix          : Default (H.263)\nCodec ID                         : XVID\nCodec ID/Hint                    : XviD\nDuration                         : 1h 50mn\nBit rate                         : 1 324 Kbps\nWidth                            : 640 pixels\nHeight                           : 272 pixels\nDisplay aspect ratio             : 2.35:1\nFrame rate                       : 25.000 fps\nColor space                      : YUV\nChroma subsampling               : 4:2:0\nBit depth                        : 8 bits\nScan type                        : Progressive\nCompression mode                 : Lossy\nBits/(Pixel*Frame)               : 0.304\nStream size                      : 1.02 GiB (74%)\nWriting library                  : XviD 64\n\nAudio\nID                               : 1\nFormat                           : AC-3\nFormat/Info                      : Audio Coding 3\nMode extension                   : CM (complete main)\nCodec ID                         : 2000\nDuration                         : 1h 50mn\nBit rate mode                    : Constant\nBit rate                         : 448 Kbps\nChannel(s)                       : 6 channels\nChannel positions                : Front: L C R, Side: L R, LFE\nSampling rate                    : 48.0 KHz\nBit depth                        : 16 bits\nCompression mode                 : Lossy\nStream size                      : 353 MiB (25%)\nAlignment                        : Aligned on interleaves\nInterleave, duration             : 96 ms (2.40 video frames)\nInterleave, preload duration     : 96 ms\n\n\n\n\nRelease notes:\niMBT did the Director's Cut, this is the THEATRiCAL cut.\n\nSee http://www.movie-censorship.com/report.php?ID=4991440 for differences.\n\nenjoy!\n\nLooking for:\n75TB+ Archives\nDUTCH/FLEMiSH Archives\n                                                                                                    \nGreets: CRBS EPiSODE FiCO FLS iLS KLASSiGER LiPSYNC MADE NODLABS RUNNER SPRiNTER      \n   \n\n                                                                    ASCII DONE BY XX^NFO 2oo9","torrent":{"xt":"urn:btih:cbb89eb09877c0c02919ec1246c6765a5b1db92b","amp;dn":"Terminator.Salvation.2009.Theatrical.Cut.DVDRip.XviD-EXViD","amp;tr":["udp%3A%2F%2Ftracker.openbittorrent.com%3A80","udp%3A%2F%2Fopen.demonii.com%3A1337","udp%3A%2F%2Ftracker.coppersurfer.tk%3A6969","udp%3A%2F%2Fexodus.desync.com%3A6969"],"infoHash":"cbb89eb09877c0c02919ec1246c6765a5b1db92b","infoHashBuffer":{"type":"Buffer","data":[203,184,158,176,152,119,192,192,41,25,236,18,70,198,118,90,91,29,185,43]},"announce":[],"urlList":[]}}